<?xml version="1.0" encoding="UTF-8"?>
<svg id="_Ñëîé_1" data-name="Ñëîé 1" xmlns="http://www.w3.org/2000/svg" viewBox="0 0 1358.32 1355.09">
  <defs>
    <style>
      .cls-1 {
        stroke: #32d0f5;
        stroke-width: 43.11px;
      }

      .cls-1, .cls-2, .cls-3 {
        fill: none;
        stroke-linecap: round;
        stroke-linejoin: round;
      }

      .cls-2 {
        stroke-width: 42px;
      }

      .cls-2, .cls-3 {
        stroke: #525359;
      }

      .cls-3 {
        stroke-width: 41.82px;
      }

      .cls-4 {
        fill: #525359;
      }
    </style>
  </defs>
  <g>
    <line class="cls-2" x1="670.03" y1="1237.44" x2="670.03" y2="1334.09"/>
    <line class="cls-2" x1="670.03" y1="35.19" x2="670.03" y2="131.1"/>
    <line class="cls-2" x1="115.82" y1="684.22" x2="21" y2="684.22"/>
    <line class="cls-2" x1="1321.58" y1="683.37" x2="1223.86" y2="683.37"/>
  </g>
  <g>
    <circle class="cls-4" cx="671.29" cy="684.64" r="50"/>
    <path class="cls-1" d="M860.7,615.93c7.78,21.44,12.02,44.58,12.02,68.7,0,111.25-90.18,201.43-201.43,201.43s-201.43-90.18-201.43-201.43,90.18-201.43,201.43-201.43c25.25,0,49.41,4.64,71.67,13.12"/>
    <path class="cls-2" d="M1001.02,511.13c27.32,51.82,42.79,110.86,42.79,173.51,0,205.74-166.78,372.52-372.52,372.52s-372.52-166.78-372.52-372.52,166.78-372.52,372.52-372.52c63.3,0,122.92,15.79,175.12,43.65"/>
    <path class="cls-2" d="M1143.06,404.35c48.84,82.03,76.9,177.88,76.9,280.28,0,303.02-245.64,548.66-548.66,548.66S122.63,987.66,122.63,684.64,368.27,135.98,671.29,135.98c103.04,0,199.45,28.41,281.82,77.81"/>
  </g>
  <g>
    <polygon class="cls-3" points="1216.49 281.52 1092.3 266.02 1076.8 141.84 1197.73 20.91 1189.66 168.66 1337.41 160.59 1216.49 281.52"/>
    <line class="cls-3" x1="1267.57" y1="90.75" x2="675.01" y2="683.32"/>
  </g>
</svg>